<svg width="12" height="12" viewBox="0 0 12 12" fill="none" xmlns="http://www.w3.org/2000/svg">
  <g opacity="0.5" clip-path="url(#clip0_2438_902)">
    <path
      d="M8.49905 12.0001C8.56486 12.0005 8.63009 11.9879 8.69101 11.963C8.75193 11.9381 8.80733 11.9014 8.85405 11.8551C8.90092 11.8086 8.93812 11.7533 8.9635 11.6924C8.98888 11.6315 9.00195 11.5661 9.00195 11.5001C9.00195 11.4341 8.98888 11.3687 8.9635 11.3078C8.93812 11.2469 8.90092 11.1916 8.85405 11.1451L4.76905 7.06009C4.48815 6.77884 4.33037 6.39759 4.33037 6.00009C4.33037 5.60259 4.48815 5.22134 4.76905 4.94009L8.85405 0.855093C8.94821 0.760941 9.0011 0.633244 9.0011 0.500093C9.0011 0.366942 8.94821 0.239245 8.85405 0.145093C8.7599 0.0509408 8.6322 -0.00195312 8.49905 -0.00195312C8.3659 -0.00195313 8.23821 0.0509408 8.14405 0.145093L4.05905 4.23009C3.82624 4.46232 3.64152 4.7382 3.51549 5.04192C3.38946 5.34565 3.32458 5.67126 3.32458 6.00009C3.32458 6.32893 3.38946 6.65453 3.51549 6.95826C3.64152 7.26199 3.82624 7.53786 4.05905 7.77009L8.14405 11.8551C8.19077 11.9014 8.24618 11.9381 8.3071 11.963C8.36802 11.9879 8.43325 12.0005 8.49905 12.0001Z"
      fill="white" />
  </g>
  <defs>
    <clipPath id="clip0_2438_902">
      <rect width="12" height="12" fill="white" transform="matrix(-1 0 0 1 12 0)" />
    </clipPath>
  </defs>
</svg>