<svg width="22" height="22" viewBox="0 0 22 22" fill="none" xmlns="http://www.w3.org/2000/svg">
<path d="M16.9347 13.982C16.9347 14.2665 16.6999 14.4995 16.4128 14.4995H5.36673C5.0797 14.4995 4.84483 14.2665 4.84483 13.982V3.15767C4.84483 2.87317 5.0797 2.64014 5.36673 2.64014H16.4132C16.7002 2.64014 16.9351 2.87317 16.9351 3.15767V13.982H16.9347Z" fill="#0C9D58"/>
<path opacity="0.2" d="M16.9347 5.42282L12.7948 4.89062L16.9347 5.99995V5.42282Z" fill="#004D40"/>
<path opacity="0.2" d="M11.0895 3.20444L4.82015 6.00052L11.7492 3.48146V3.4746C11.6273 3.2138 11.3306 3.09214 11.0895 3.20444Z" fill="#004D40"/>
<path opacity="0.2" d="M16.4132 2.64014H5.36673C5.0797 2.64014 4.84483 2.87317 4.84483 3.15767V3.27372C4.84483 2.98922 5.0797 2.75619 5.36673 2.75619H16.4132C16.7002 2.75619 16.9351 2.98922 16.9351 3.27372V3.15767C16.9347 2.87317 16.7002 2.64014 16.4132 2.64014Z" fill="white"/>
<path d="M7.52556 13.6492C7.45091 13.9271 7.59989 14.2107 7.85663 14.2793L18.0879 17.0277C18.3446 17.0963 18.6157 16.925 18.69 16.6471L21.1003 7.66269C21.1749 7.38473 21.0259 7.10116 20.7692 7.03253L10.538 4.28418C10.2812 4.21555 10.0101 4.38682 9.9358 4.66477L7.52556 13.6492Z" fill="#EA4335"/>
<path opacity="0.2" d="M18.795 10.8696L19.3331 14.1349L18.795 16.1417V10.8696Z" fill="#3E2723"/>
<path opacity="0.2" d="M12.8433 5.02393L13.3255 5.15339L13.6247 7.16864L12.8433 5.02393Z" fill="#3E2723"/>
<path opacity="0.2" d="M20.7695 7.03253L10.5383 4.28418C10.2815 4.21555 10.0104 4.38682 9.9361 4.66477L7.52586 13.6492C7.5218 13.6641 7.52086 13.6794 7.51805 13.6944L9.91017 4.77801C9.98482 4.50006 10.2559 4.32879 10.5123 4.39742L20.7436 7.14577C20.9863 7.21066 21.1303 7.46802 21.0825 7.731L21.1009 7.66269C21.1752 7.38473 21.0262 7.10116 20.7695 7.03253Z" fill="white"/>
<path d="M15.5833 12.5426C15.6817 12.8131 15.558 13.1085 15.3084 13.1993L4.5122 17.1241C4.26233 17.2148 3.97749 17.0679 3.87911 16.7974L0.693984 8.057C0.5956 7.78653 0.719282 7.49111 0.968833 7.40033L11.7651 3.47559C12.0149 3.38481 12.2998 3.53174 12.3982 3.80221L15.5833 12.5426Z" fill="#FFC107"/>
<path opacity="0.2" d="M0.734906 8.16743C0.636523 7.89696 0.760205 7.60154 1.00976 7.51076L11.806 3.58571C12.0531 3.49586 12.3338 3.63905 12.4353 3.9039L12.3982 3.80221C12.2995 3.53174 12.0146 3.38481 11.7651 3.47559L0.96884 7.40064C0.718977 7.49142 0.595295 7.78684 0.693991 8.05731L3.87911 16.7977C3.88005 16.8006 3.88193 16.803 3.88317 16.8062L0.734906 8.16743Z" fill="white"/>
<path d="M18.795 18.8375C18.795 19.1249 18.5595 19.3601 18.2718 19.3601H3.50808C3.22043 19.3601 2.98493 19.1249 2.98493 18.8375V7.69099C2.98493 7.40367 3.22043 7.16846 3.50808 7.16846H18.2718C18.5595 7.16846 18.795 7.40367 18.795 7.69099V18.8375Z" fill="#4285F4"/>
<path d="M15.9759 11.5805H11.5583V10.4194H15.9759C16.1043 10.4194 16.2083 10.5233 16.2083 10.6515V11.3481C16.2083 11.4763 16.1043 11.5805 15.9759 11.5805ZM15.9759 15.9926H11.5583V14.8315H15.9759C16.1043 14.8315 16.2083 14.9353 16.2083 15.0635V15.7601C16.2083 15.8887 16.1043 15.9926 15.9759 15.9926ZM16.6733 13.7864H11.5583V12.6253H16.6733C16.8017 12.6253 16.9057 12.7292 16.9057 12.8574V13.554C16.9057 13.6825 16.8017 13.7864 16.6733 13.7864Z" fill="white"/>
<path opacity="0.2" d="M18.2718 19.2437H3.50808C3.22043 19.2437 2.98493 19.0085 2.98493 18.7212V18.8372C2.98493 19.1246 3.22043 19.3598 3.50808 19.3598H18.2718C18.5595 19.3598 18.795 19.1246 18.795 18.8372V18.7212C18.795 19.0085 18.5595 19.2437 18.2718 19.2437Z" fill="#1A237E"/>
<path opacity="0.2" d="M3.50808 7.28451H18.2718C18.5595 7.28451 18.795 7.51972 18.795 7.80703V7.69099C18.795 7.40367 18.5595 7.16846 18.2718 7.16846H3.50808C3.22043 7.16846 2.98493 7.40367 2.98493 7.69099V7.80703C2.98493 7.51972 3.22043 7.28451 3.50808 7.28451Z" fill="white"/>
<path d="M7.60582 12.7416V13.7889H9.11031C8.986 14.4268 8.42444 14.8895 7.60582 14.8895C6.69258 14.8895 5.95205 14.118 5.95205 13.2058C5.95205 12.2937 6.69258 11.5222 7.60582 11.5222C8.01716 11.5222 8.3854 11.6635 8.67617 11.9402V11.9409L9.4723 11.1457C8.98881 10.6955 8.35822 10.4194 7.60551 10.4194C6.0648 10.4194 4.81548 11.667 4.81548 13.2062C4.81548 14.7454 6.06448 15.9929 7.60551 15.9929C9.21681 15.9929 10.2769 14.8614 10.2769 13.2695C10.2769 13.087 10.26 12.911 10.2328 12.7416H7.60582Z" fill="white"/>
<g opacity="0.2">
<path d="M7.63486 13.7891V13.9051H9.11124C9.12217 13.8671 9.13154 13.8284 9.13935 13.7891H7.63486Z" fill="#1A237E"/>
<path d="M7.63486 15.9926C6.11351 15.9926 4.87732 14.7763 4.8464 13.2639C4.84608 13.2832 4.84483 13.3026 4.84483 13.3219C4.84483 14.8611 6.09383 16.1086 7.63486 16.1086C9.24616 16.1086 10.3062 14.9772 10.3062 13.3853C10.3062 13.3725 10.3046 13.3606 10.3046 13.3478C10.27 14.8983 9.21962 15.9926 7.63486 15.9926ZM8.70521 11.9403C8.41443 11.6639 8.04589 11.5222 7.63486 11.5222C6.72161 11.5222 5.98108 12.2937 5.98108 13.2059C5.98108 13.2255 5.98327 13.2446 5.98389 13.2639C6.01481 12.3773 6.74098 11.6383 7.63486 11.6383C8.0462 11.6383 8.41443 11.7796 8.70521 12.0563V12.0569L9.55943 11.2037C9.53944 11.185 9.51726 11.1685 9.49665 11.1504L8.70552 11.9409L8.70521 11.9403Z" fill="#1A237E"/>
</g>
<path opacity="0.2" d="M16.2083 11.4642V11.3481C16.2083 11.4764 16.1043 11.5802 15.9759 11.5802H11.5583V11.6963H15.9759C16.1043 11.6966 16.2083 11.5927 16.2083 11.4642ZM15.9759 15.9926H11.5583V16.1086H15.9759C16.1043 16.1086 16.2083 16.0047 16.2083 15.8765V15.7605C16.2083 15.8887 16.1043 15.9926 15.9759 15.9926ZM16.6733 13.7864H11.5583V13.9025H16.6733C16.8017 13.9025 16.9057 13.7986 16.9057 13.6704V13.5543C16.9057 13.6825 16.8017 13.7864 16.6733 13.7864Z" fill="#1A237E"/>
<path d="M20.7696 7.03281L16.9351 6.00273V3.15767C16.9351 2.87317 16.7002 2.64014 16.4132 2.64014H5.36679C5.07976 2.64014 4.84489 2.87317 4.84489 3.15767V5.9915L0.968893 7.40061C0.719031 7.49139 0.595349 7.78682 0.694045 8.05728L2.98497 14.3445V18.8376C2.98497 19.1249 3.22047 19.3601 3.50812 19.3601H18.2719C18.5595 19.3601 18.795 19.1249 18.795 18.8376V16.258L21.1009 7.66297C21.1753 7.38501 21.0263 7.10144 20.7696 7.03281Z" fill="url(#paint0_radial_1_3714)"/>
<line x1="12.5534" y1="9.40869" x2="16.6511" y2="9.40869" stroke="#DBDBDB"/>
<defs>
<radialGradient id="paint0_radial_1_3714" cx="0" cy="0" r="1" gradientUnits="userSpaceOnUse" gradientTransform="translate(5.27123 3.99477) scale(19.8971 19.8735)">
<stop stop-color="white" stop-opacity="0.1"/>
<stop offset="1" stop-color="white" stop-opacity="0"/>
</radialGradient>
</defs>
</svg>
