<svg width="22" height="22" viewBox="0 0 22 22" fill="none" xmlns="http://www.w3.org/2000/svg">
<path d="M11 1.8335C8.56883 1.8335 6.23725 2.79927 4.51817 4.51835C2.79908 6.23743 1.83331 8.56901 1.83331 11.0002C1.83331 13.4313 2.79908 15.7629 4.51817 17.482C6.23725 19.2011 8.56883 20.1668 11 20.1668C13.4311 20.1668 15.7627 19.2011 17.4818 17.482C19.2009 15.7629 20.1666 13.4313 20.1666 11.0002C20.1666 8.56901 19.2009 6.23743 17.4818 4.51835C15.7627 2.79927 13.4311 1.8335 11 1.8335Z" fill="#29B6F6"/>
<path d="M15.5604 6.87484L13.8435 15.6409C13.8435 15.6409 13.7697 16.0415 13.2729 16.0415C13.0089 16.0415 12.8727 15.9159 12.8727 15.9159L9.15381 12.83L7.33423 11.9128L4.99902 11.2918C4.99902 11.2918 4.58331 11.1717 4.58331 10.828C4.58331 10.5415 5.01094 10.4049 5.01094 10.4049L14.7808 6.52376C14.7803 6.5233 15.0791 6.41605 15.2969 6.41651C15.4307 6.41651 15.5833 6.4738 15.5833 6.64567C15.5833 6.76026 15.5604 6.87484 15.5604 6.87484Z" fill="white"/>
<path d="M10.5417 13.9814L8.97142 15.5278C8.97142 15.5278 8.90313 15.5805 8.81192 15.5828C8.7803 15.5837 8.74638 15.5786 8.71155 15.5631L9.15338 12.8291L10.5417 13.9814Z" fill="#B0BEC5"/>
<path d="M13.7028 8.33978C13.6253 8.23895 13.4823 8.22062 13.3815 8.29716L7.33331 11.9166C7.33331 11.9166 8.29856 14.6171 8.44569 15.0846C8.59327 15.5526 8.71152 15.5636 8.71152 15.5636L9.15335 12.8296L13.6597 8.66062C13.7605 8.58408 13.7793 8.44062 13.7028 8.33978Z" fill="#CFD8DC"/>
</svg>
