<svg width="22" height="22" viewBox="0 0 22 22" fill="none" xmlns="http://www.w3.org/2000/svg">
<path fill-rule="evenodd" clip-rule="evenodd" d="M18.3352 19.2358L3.68088 19.25C3.17717 19.2505 2.76467 18.8389 2.76421 18.3352L2.75 3.68088C2.74954 3.17717 3.16113 2.76467 3.66483 2.76421L18.3191 2.75C18.8228 2.74954 19.2353 3.16113 19.2358 3.66483L19.25 18.3191C19.2505 18.8228 18.8389 19.2353 18.3352 19.2358Z" fill="url(#paint0_linear_1_3707)"/>
<path fill-rule="evenodd" clip-rule="evenodd" d="M13.387 9.44505C14.1093 9.96113 14.9944 10.2645 15.95 10.2645V8.42617C15.769 8.42617 15.5888 8.40738 15.4119 8.3698V9.81675C14.4563 9.81675 13.5717 9.51288 12.8489 8.99725V12.7483C12.8489 14.6247 11.3268 16.1459 9.44946 16.1459C8.74913 16.1459 8.09784 15.9341 7.55701 15.5711C8.17438 16.2018 9.03513 16.5932 9.98755 16.5932C11.8649 16.5932 13.387 15.072 13.387 13.1956V9.44505ZM14.0511 7.59063C13.6822 7.18775 13.4397 6.66663 13.387 6.0905V5.854H12.8769C13.0052 6.58596 13.4434 7.21159 14.0511 7.59063ZM8.74455 14.1315C8.5383 13.8611 8.42692 13.5306 8.42738 13.1905C8.42738 12.3321 9.12359 11.6363 9.98251 11.6363C10.1425 11.6363 10.3015 11.6606 10.4541 11.7092V9.83005C10.2758 9.80575 10.0962 9.79521 9.91605 9.79888V11.2614C9.76342 11.2128 9.60438 11.1885 9.44396 11.1885C8.58505 11.1885 7.88884 11.8843 7.88884 12.7428C7.8893 13.35 8.23717 13.8758 8.74455 14.1315Z" fill="#EC407A"/>
<path fill-rule="evenodd" clip-rule="evenodd" d="M12.8489 8.99725C13.5713 9.51334 14.4563 9.81675 15.4119 9.81675V8.3698C14.8784 8.25613 14.4063 7.97746 14.0511 7.59017C13.4434 7.21113 13.0057 6.58596 12.8773 5.854H11.5376V13.1956C11.5344 14.0513 10.8396 14.7443 9.9825 14.7443C9.47742 14.7443 9.02871 14.5037 8.74455 14.131C8.23717 13.8753 7.8893 13.3496 7.8893 12.7428C7.8893 11.8843 8.5855 11.1885 9.44442 11.1885C9.60896 11.1885 9.76755 11.2142 9.9165 11.2614V9.79934C8.07217 9.83738 6.589 11.3435 6.589 13.196C6.589 14.121 6.95842 14.9593 7.55792 15.5716C8.09875 15.9346 8.75005 16.1463 9.45038 16.1463C11.3277 16.1463 12.8498 14.6251 12.8498 12.7487L12.8489 8.99725Z" fill="white"/>
<path fill-rule="evenodd" clip-rule="evenodd" d="M15.4119 8.37029V7.97888C14.9307 7.97979 14.4595 7.84504 14.0511 7.59021C14.4123 7.98575 14.888 8.25846 15.4119 8.37029ZM12.8769 5.85404C12.8645 5.78392 12.8553 5.71379 12.8489 5.64275V5.40625H10.9991V12.7483C10.9963 13.604 10.301 14.297 9.44396 14.297C9.19234 14.297 8.95492 14.2374 8.74454 14.1311C9.02871 14.5037 9.47742 14.7443 9.9825 14.7443C10.8396 14.7443 11.5344 14.0513 11.5376 13.1956V5.85404H12.8769ZM9.91604 9.79937V9.38275C9.76159 9.36167 9.60575 9.35113 9.44946 9.35113C7.57167 9.35113 6.05 10.8723 6.05 12.7487C6.05 13.9253 6.64813 14.962 7.557 15.5716C6.9575 14.9593 6.58809 14.121 6.58809 13.1961C6.58809 11.3435 8.07171 9.83742 9.91604 9.79937Z" fill="#81D4FA"/>
<defs>
<linearGradient id="paint0_linear_1_3707" x1="10.9895" y1="2.82288" x2="10.9895" y2="19.2711" gradientUnits="userSpaceOnUse">
<stop stop-color="#4C4C4C"/>
<stop offset="1" stop-color="#343434"/>
</linearGradient>
</defs>
</svg>
