<svg width="22" height="22" viewBox="0 0 22 22" fill="none" xmlns="http://www.w3.org/2000/svg">
<path d="M20.6305 15.8398C20.4293 16.8665 19.5745 17.6489 18.5185 17.7955C16.8589 18.0398 14.0929 18.3332 10.9748 18.3332C7.90719 18.3332 5.14115 18.0398 3.4311 17.7955C2.3751 17.6489 1.51985 16.8665 1.3191 15.8398C1.1179 14.7155 0.916687 13.0532 0.916687 10.9998C0.916687 8.9465 1.1179 7.28413 1.3191 6.15984C1.52031 5.13317 2.3751 4.3508 3.4311 4.20413C5.09073 3.95984 7.85677 3.6665 10.9748 3.6665C14.0929 3.6665 16.8085 3.95984 18.5185 4.20413C19.5745 4.3508 20.4298 5.13317 20.6305 6.15984C20.8317 7.28413 21.0834 8.9465 21.0834 10.9998C21.0329 13.0532 20.8317 14.7155 20.6305 15.8398Z" fill="url(#paint0_linear_1_3680)"/>
<path opacity="0.05" d="M14.828 10.2852L9.5865 6.79086C9.32204 6.6144 8.98425 6.5979 8.70421 6.74823C8.42417 6.89811 8.25 7.18823 8.25 7.50586V14.4945C8.25 14.8121 8.42417 15.1027 8.70421 15.2526C8.83162 15.3209 8.9705 15.3544 9.10937 15.3544C9.27621 15.3544 9.44213 15.3058 9.58604 15.21L14.8275 11.7156C15.0673 11.5557 15.2102 11.2885 15.2102 11.0006C15.2107 10.7124 15.0673 10.4451 14.828 10.2852Z" fill="black"/>
<path opacity="0.07" d="M9.47881 6.98366L14.4242 10.2809C14.74 10.5078 14.9527 10.7108 14.9527 10.9744C14.9527 11.2379 14.85 11.4217 14.625 11.5858C14.4549 11.7095 9.56269 14.9609 9.56269 14.9609C9.14973 15.2378 8.47919 15.1791 8.47919 14.2739V7.67436C8.47919 6.75541 9.20519 6.80124 9.47881 6.98366Z" fill="black"/>
<path d="M8.70831 14.4686V7.53174C8.70831 7.1912 9.08781 6.9877 9.37152 7.17699L14.5745 10.6457C14.828 10.8143 14.828 11.1865 14.5745 11.3556L9.37152 14.8243C9.08781 15.0127 8.70831 14.8096 8.70831 14.4686Z" fill="white"/>
<defs>
<linearGradient id="paint0_linear_1_3680" x1="4.49902" y1="4.52405" x2="18.9044" y2="18.9295" gradientUnits="userSpaceOnUse">
<stop stop-color="#F44F5A"/>
<stop offset="0.443" stop-color="#EE3D4A"/>
<stop offset="1" stop-color="#E52030"/>
</linearGradient>
</defs>
</svg>
